# This file uses centimeters as units for non-parametric coordinates.

mtllib Coffin.mtl
v -0.407350 -0.081839 0.339938
v 0.407350 -0.081839 0.339938
v -0.407350 0.500000 0.339938
v 0.407350 0.500000 0.339938
v -0.407350 0.500000 -2.936123
v 0.407350 0.500000 -2.936123
v -0.407350 -0.081839 -2.936123
v 0.407350 -0.081839 -2.936123
v 0.407350 0.380465 0.339938
v -0.407350 0.380465 0.339938
v -0.407350 0.380465 -2.936123
v 0.407350 0.380465 -2.936123
v 0.407350 0.027404 0.339938
v -0.407350 0.027404 0.339938
v -0.407350 0.027404 -2.936123
v 0.407350 0.027404 -2.936123
v 0.660957 0.500000 -1.805725
v -0.660957 0.500000 -1.805725
v -0.660957 0.380465 -1.805725
v -0.660957 0.027404 -1.805725
v -0.660957 -0.081839 -1.805725
v 0.660957 -0.081839 -1.805725
v 0.660957 0.027404 -1.805725
v 0.660957 0.380465 -1.805725
v 0.391421 0.027404 0.322015
v -0.391420 0.027404 0.322015
v 0.391420 0.380465 0.322015
v -0.391421 0.380465 0.322015
v -0.642798 0.027404 -1.804789
v -0.642798 0.380465 -1.804789
v -0.393002 0.380465 -2.918199
v 0.393002 0.380465 -2.918199
v 0.393002 0.027404 -2.918199
v -0.393002 0.027404 -2.918199
v 0.642798 0.027404 -1.804789
v 0.642798 0.380465 -1.804789
vt 0.375000 0.000000
vt 0.625000 0.000000
vt 0.375000 0.250000
vt 0.625000 0.250000
vt 0.375000 0.500000
vt 0.625000 0.500000
vt 0.375000 0.750000
vt 0.625000 0.750000
vt 0.375000 1.000000
vt 0.625000 1.000000
vt 0.875000 0.000000
vt 0.875000 0.250000
vt 0.125000 0.000000
vt 0.125000 0.250000
vt 0.625000 0.198639
vt 0.375000 0.198639
vt 0.125000 0.198639
vt 0.375000 0.551361
vt 0.625000 0.551361
vt 0.875000 0.198639
vt 0.625000 0.046938
vt 0.375000 0.046938
vt 0.125000 0.046938
vt 0.375000 0.703062
vt 0.625000 0.703062
vt 0.875000 0.046938
vt 0.625000 0.413738
vt 0.788738 0.250000
vt 0.211262 0.250000
vt 0.375000 0.413738
vt 0.211262 0.198639
vt 0.211262 0.046938
vt 0.211262 0.000000
vt 0.375000 0.836262
vt 0.625000 0.836262
vt 0.788738 0.000000
vt 0.788738 0.046938
vt 0.788738 0.198639
vt 0.375000 0.046938
vt 0.625000 0.046938
vt 0.625000 0.198639
vt 0.375000 0.198639
vt 0.211262 0.046938
vt 0.211262 0.198639
vt 0.375000 0.551361
vt 0.625000 0.551361
vt 0.625000 0.703062
vt 0.375000 0.703062
vt 0.788738 0.046938
vt 0.788738 0.198639
vt 0.125000 0.046938
vt 0.125000 0.198639
vt 0.875000 0.046938
vt 0.875000 0.198639
vn 0.000000 0.000000 1.000000
vn 0.000000 0.000000 1.000000
vn 0.000000 0.000000 1.000000
vn 0.000000 0.000000 1.000000
vn 0.000000 1.000000 -0.000000
vn 0.000000 1.000000 -0.000000
vn 0.000000 1.000000 -0.000000
vn 0.000000 1.000000 -0.000000
vn 0.000000 0.000000 -1.000000
vn 0.000000 0.000000 -1.000000
vn 0.000000 0.000000 -1.000000
vn 0.000000 0.000000 -1.000000
vn 0.000000 -1.000000 0.000000
vn 0.000000 -1.000000 -0.000000
vn 0.000000 -1.000000 0.000000
vn 0.000000 -1.000000 0.000000
vn 0.993087 0.000000 0.117378
vn 1.000000 0.000000 0.000000
vn 0.993087 0.000000 0.117378
vn 1.000000 0.000000 -0.000000
vn -1.000000 0.000000 0.000000
vn -0.993087 0.000000 0.117378
vn -1.000000 0.000000 0.000000
vn -0.993087 0.000000 0.117378
vn 0.000000 0.000000 1.000000
vn 0.000000 0.000000 1.000000
vn 0.000000 0.000000 1.000000
vn 0.000000 0.000000 1.000000
vn -1.000000 0.000000 -0.000000
vn -0.993087 0.000000 0.117378
vn -1.000000 0.000000 -0.000000
vn -0.993087 0.000000 0.117378
vn 0.000000 0.000000 -1.000000
vn 0.000000 0.000000 -1.000000
vn 0.000000 0.000000 -1.000000
vn 0.000000 0.000000 -1.000000
vn 0.993087 0.000000 0.117378
vn 1.000000 0.000000 0.000000
vn 0.993087 0.000000 0.117378
vn 1.000000 0.000000 0.000000
vn 0.000000 0.000000 1.000000
vn 0.000000 0.000000 1.000000
vn 0.000000 0.000000 1.000000
vn 0.000000 0.000000 1.000000
vn -1.000000 0.000000 0.000488
vn -0.993087 -0.000000 0.117378
vn -1.000000 -0.000000 0.000488
vn -0.993087 -0.000000 0.117378
vn 0.000000 0.000000 -1.000000
vn 0.000000 0.000000 -1.000000
vn 0.000000 0.000000 -1.000000
vn 0.000000 0.000000 -1.000000
vn 0.993087 0.000000 0.117378
vn 1.000000 0.000000 0.000488
vn 0.993087 0.000000 0.117378
vn 1.000000 0.000000 0.000488
vn 0.000000 1.000000 -0.000000
vn 0.000000 1.000000 0.000000
vn -0.975745 0.000000 -0.218910
vn -0.975745 0.000000 -0.218910
vn -0.975745 0.000000 -0.218910
vn -0.975745 0.000000 -0.218910
vn -0.975745 0.000000 -0.218910
vn -0.975745 0.000000 -0.218910
vn 0.000000 -1.000000 0.000000
vn 0.000000 -1.000000 -0.000000
vn 0.975745 0.000000 -0.218910
vn 0.975745 0.000000 -0.218910
vn 0.975745 0.000000 -0.218910
vn 0.975745 0.000000 -0.218910
vn 0.975745 0.000000 -0.218910
vn 0.975745 0.000000 -0.218910
vn 0.000000 1.000000 0.000000
vn 0.000000 1.000000 -0.000000
vn 0.000000 1.000000 0.000000
vn 0.000000 1.000000 -0.000000
vn 0.000000 -1.000000 -0.000000
vn 0.000000 -1.000000 0.000000
vn 0.000000 -1.000000 -0.000000
vn 0.000000 -1.000000 0.000000
vn 0.000000 1.000000 -0.000000
vn 0.000000 1.000000 -0.000000
vn 0.000000 -1.000000 0.000000
vn 0.000000 -1.000000 0.000000
vn 0.000000 -1.000000 0.000001
vn 0.000000 -1.000000 -0.000002
vn 0.000000 -1.000000 0.000001
vn 0.000000 -1.000000 -0.000002
vn 0.000000 1.000000 -0.000000
vn 0.000000 1.000000 0.000000
vn 0.000000 1.000000 -0.000000
vn 0.000000 1.000000 0.000000
vn 0.000000 1.000000 -0.000000
vn 0.000000 1.000000 -0.000000
vn 0.000000 -1.000000 0.000000
vn 0.000000 -1.000000 0.000000
usemtl initialShadingGroup
f 1/1/1 2/2/2 14/22/3
f 14/22/3 2/2/2 13/21/4
f 3/3/5 4/4/6 18/30/7
f 18/30/7 4/4/6 17/27/8
f 15/24/9 16/25/10 7/7/11
f 7/7/11 16/25/10 8/8/12
f 21/34/13 22/35/14 1/9/15
f 1/9/15 22/35/14 2/10/16
f 2/2/17 22/36/18 13/21/19
f 13/21/19 22/36/18 23/37/20
f 21/33/21 1/1/22 20/32/23
f 20/32/23 1/1/22 14/22/24
f 10/16/25 9/15/26 3/3/27
f 3/3/27 9/15/26 4/4/28
f 19/31/29 10/16/30 18/29/31
f 18/29/31 10/16/30 3/3/32
f 5/5/33 6/6/34 11/18/35
f 11/18/35 6/6/34 12/19/36
f 9/15/37 24/38/38 4/4/39
f 4/4/39 24/38/38 17/28/40
f 26/39/41 25/40/42 28/42/43
f 28/42/43 25/40/42 27/41/44
f 29/43/45 26/39/46 30/44/47
f 30/44/47 26/39/46 28/42/48
f 31/45/49 32/46/50 34/48/51
f 34/48/51 32/46/50 33/47/52
f 25/40/53 35/49/54 27/41/55
f 27/41/55 35/49/54 36/50/56
f 18/30/7 17/27/8 5/5/57
f 5/5/57 17/27/8 6/6/58
f 11/17/59 19/31/29 5/14/60
f 5/14/60 19/31/29 18/29/31
f 34/51/61 29/43/45 31/52/62
f 31/52/62 29/43/45 30/44/47
f 7/13/63 21/33/21 15/23/64
f 15/23/64 21/33/21 20/32/23
f 7/7/65 8/8/66 21/34/13
f 21/34/13 8/8/66 22/35/14
f 23/37/20 22/36/18 16/26/67
f 16/26/67 22/36/18 8/11/68
f 36/50/56 35/49/54 32/54/69
f 32/54/69 35/49/54 33/53/70
f 17/28/40 24/38/38 6/12/71
f 6/12/71 24/38/38 12/20/72
f 14/22/73 13/21/74 26/39/75
f 26/39/75 13/21/74 25/40/76
f 9/15/77 10/16/78 27/41/79
f 27/41/79 10/16/78 28/42/80
f 14/22/73 26/39/75 20/32/81
f 20/32/81 26/39/75 29/43/82
f 10/16/78 19/31/83 28/42/80
f 28/42/80 19/31/83 30/44/84
f 11/18/85 12/19/86 31/45/87
f 31/45/87 12/19/86 32/46/88
f 16/25/89 15/24/90 33/47/91
f 33/47/91 15/24/90 34/48/92
f 13/21/74 23/37/93 25/40/76
f 25/40/76 23/37/93 35/49/94
f 9/15/77 27/41/79 24/38/95
f 24/38/95 27/41/79 36/50/96
f 15/23/90 20/32/81 34/51/92
f 34/51/92 20/32/81 29/43/82
f 11/17/85 31/52/87 19/31/83
f 19/31/83 31/52/87 30/44/84
f 16/26/89 33/53/91 23/37/93
f 23/37/93 33/53/91 35/49/94
f 12/20/86 24/38/95 32/54/88
f 32/54/88 24/38/95 36/50/96
